HIERARCHY
ROOT root
{
	OFFSET	0	13.1	24.9
	CHANNELS 6  Xposition Yposition Zposition Xrotation Yrotation Zrotation
	JOINT spine_1
	{
		OFFSET	0	9.99999	0
		CHANNELS 3  Xrotation Yrotation Zrotation
		JOINT spine_2
		{
			OFFSET	0	112	-10
			CHANNELS 3  Xrotation Yrotation Zrotation
			JOINT spine_3
			{
				OFFSET	0	206.5	19.3
				CHANNELS 3  Xrotation Yrotation Zrotation
				JOINT spine_4
				{
					OFFSET	0	110.4	14.6
					CHANNELS 3  Xrotation Yrotation Zrotation
					JOINT neck_1
					{
						OFFSET	0	71.8	-50.3
						CHANNELS 3  Xrotation Yrotation Zrotation
						JOINT neck_2
						{
							OFFSET	0	86.2	-25.8
							CHANNELS 3  Xrotation Yrotation Zrotation
							JOINT head_ee
							{
								OFFSET	0	179.8	-8.7
								CHANNELS 3  Xrotation Yrotation Zrotation
								End Site
								{
									OFFSET	1	0	0
								}
							}
						}
					}
					JOINT left_clavicle
					{
						OFFSET	-43.2	22.4	-70.8
						CHANNELS 3  Xrotation Yrotation Zrotation
						JOINT left_shoulder
						{
							OFFSET	-93.9	-5.79999	48.7
							CHANNELS 3  Xrotation Yrotation Zrotation
							JOINT left_elbow
							{
								OFFSET	-291.4	-30.8	15.2
								CHANNELS 3  Xrotation Yrotation Zrotation
								JOINT left_lowarm_twist
								{
									OFFSET	-110.7	-3.89999	13.6
									CHANNELS 3  Xrotation Yrotation Zrotation
									JOINT left_hand
									{
										OFFSET	-110.7	-3.89999	13.6
										CHANNELS 3  Xrotation Yrotation Zrotation
										JOINT left_ee
										{
											OFFSET	-80.8	-5.10001	12.1
											CHANNELS 3  Xrotation Yrotation Zrotation
											End Site
											{
												OFFSET	1	0	0
											}
										}
									}
								}
							}
						}
					}
					JOINT right_clavicle
					{
						OFFSET	43.2	22.4	-70.8
						CHANNELS 3  Xrotation Yrotation Zrotation
						JOINT right_shoulder
						{
							OFFSET	93.9	-5.79999	48.7
							CHANNELS 3  Xrotation Yrotation Zrotation
							JOINT right_elbow
							{
								OFFSET	291.4	-30.8	15.2
								CHANNELS 3  Xrotation Yrotation Zrotation
								JOINT right_lowarm_twist
								{
									OFFSET	110.7	-3.89999	13.6
									CHANNELS 3  Xrotation Yrotation Zrotation
									JOINT right_hand
									{
										OFFSET	110.7	-3.89999	13.6
										CHANNELS 3  Xrotation Yrotation Zrotation
										JOINT right_ee
										{
											OFFSET	80.8	-5.10001	12.1
											CHANNELS 3  Xrotation Yrotation Zrotation
											End Site
											{
												OFFSET	1	0	0
											}
										}
									}
								}
							}
						}
					}
				}
			}
		}
	}
	JOINT left_hip
	{
		OFFSET	-82.8	-127.5	0.300001
		CHANNELS 3  Xrotation Yrotation Zrotation
		JOINT left_knee
		{
			OFFSET	-28.2	-396.7	2.2
			CHANNELS 3  Xrotation Yrotation Zrotation
			JOINT left_ankle
			{
				OFFSET	-11.7	-411.3	35.4
				CHANNELS 3  Xrotation Yrotation Zrotation
				JOINT left_toes
				{
					OFFSET	0	-60	-88.6
					CHANNELS 3  Xrotation Yrotation Zrotation
					JOINT left_foot_ee
					{
						OFFSET	-22.5	-16.5	-42.2
						CHANNELS 3  Xrotation Yrotation Zrotation
						End Site
						{
							OFFSET	1	0	0
						}
					}
				}
			}
		}
	}
	JOINT right_hip
	{
		OFFSET	82.8	-127.5	0.300001
		CHANNELS 3  Xrotation Yrotation Zrotation
		JOINT right_knee
		{
			OFFSET	28.2	-396.7	2.2
			CHANNELS 3  Xrotation Yrotation Zrotation
			JOINT right_ankle
			{
				OFFSET	11.7	-411.3	35.4
				CHANNELS 3  Xrotation Yrotation Zrotation
				JOINT right_toes
				{
					OFFSET	0	-60	-88.6
					CHANNELS 3  Xrotation Yrotation Zrotation
					JOINT right_foot_ee
					{
						OFFSET	22.5	-16.5	-42.2
						CHANNELS 3  Xrotation Yrotation Zrotation
						End Site
						{
							OFFSET	1	0	0
						}
					}
				}
			}
		}
	}
}
MOTION
Frames: 13
Frame Time: 0.02
907.592 769.744 -1619.16 16.8588 46.6128 -4.27979 -4.81069 -0.339727 -1.53448 -4.80941 -0.241407 -1.55299 -4.80033 0.221395 -1.55597 -4.80371 -0.0270878 -1.5714 -0.842776 6.03662 6.11717 -0.740175 5.87032 7.21185 -0.0 0.0 -0.0 7.55174 6.71773 14.5252 3.75806 -5.88037 50.5065 2.81204 -54.3163 1.44281 -19.6525 -1.0901 2.25182 -2.03778 -8.33183 -17.5658 -0.0 0.0 -0.0 11.0751 12.0027 -22.1823 -25.8564 29.095 -51.127 0.725225 19.7611 -0.12632 -22.8547 1.33837 -2.57829 -6.33002 -14.8318 35.8036 0.0 0.0 0.0 -7.97484 -36.5748 -7.93782 -21.457 0.27548 3.262 24.7636 27.6339 -3.53605 14.6476 -0.0 -0.0 -0.0 0.0 -0.0 5.37881 35.6376 -14.3334 5.06119 0.241256 0.738769 9.84603 -25.3836 1.46801 -8.66851 0.0 0.0 0.0 0.0 0.0 
902.432 771.625 -1622.53 17.4567 48.3029 -5.05244 -4.70372 -0.277999 -1.53788 -4.70242 -0.179589 -1.55245 -4.69515 0.277575 -1.53796 -4.69845 0.0312305 -1.56249 -1.14216 5.61525 8.16848 -0.968534 3.49502 9.34178 -0.0 0.0 -0.0 7.80113 7.61296 14.9506 3.93372 -5.92154 51.6335 3.00924 -56.1336 1.60481 -20.1202 -1.12522 2.30035 -1.79836 -11.5688 -17.2947 -0.0 0.0 -0.0 10.8775 11.5326 -21.749 -26.9612 31.2363 -50.196 0.768306 20.8366 -0.141266 -21.0318 1.19479 -2.39412 -6.2342 -14.5357 35.2976 0.0 0.0 0.0 -7.71172 -33.3089 -8.09723 -20.2835 0.292161 3.08272 25.9172 27.7482 -3.68399 15.5199 -0.0 -0.0 -0.0 0.0 -0.0 5.58213 35.6682 -14.7148 4.01299 0.185934 0.587524 5.40818 -27.4226 0.826347 -8.47416 0.0 0.0 0.0 0.0 0.0 
897.598 765.924 -1628.78 18.0353 48.568 -5.26866 -4.60419 -0.390137 -1.54573 -4.60291 -0.291 -1.56741 -4.59237 0.172385 -1.58485 -4.59587 -0.0800428 -1.59218 0.645625 3.9891 5.62566 0.726433 2.41933 6.48651 -0.0 0.0 -0.0 7.93398 7.04918 15.2262 4.20928 -5.69144 51.8106 2.80082 -54.2077 1.4337 -19.8799 -1.10712 2.27545 -2.14907 -9.24113 -18.7607 -0.0 0.0 -0.0 11.0986 11.2923 -22.2457 -25.7907 31.2547 -50.5898 0.701829 19.1708 -0.118523 -22.9984 1.34993 -2.59261 -6.26283 -15.7081 34.5375 0.0 0.0 0.0 -8.48219 -33.5862 -8.44142 -21.1102 0.280792 3.20906 29.0772 26.9721 -4.0494 15.5394 -0.0 -0.0 -0.0 0.0 -0.0 5.56359 35.7571 -15.1589 1.73361 0.0752615 0.255366 9.45607 -24.2887 1.40339 -6.91577 0.0 0.0 0.0 0.0 0.0 
889.514 768.426 -1628.98 16.955 48.2689 -4.57288 -4.66409 -0.353564 -1.26465 -4.66325 -0.272381 -1.28458 -4.65536 0.11025 -1.3085 -4.65774 -0.0977686 -1.30949 -0.526224 3.16021 3.88179 -0.486928 2.49737 4.50461 -0.0 0.0 -0.0 8.05622 6.92871 15.4616 3.99825 -5.43547 51.6973 2.72153 -53.4243 1.3697 -20.1767 -1.12949 2.3062 -1.89941 -9.40013 -17.0616 -0.0 0.0 -0.0 11.2006 11.743 -22.4675 -26.2203 31.939 -49.4086 0.746154 20.2854 -0.133486 -23.2052 1.36664 -2.61318 -6.27053 -15.8814 34.4506 0.0 0.0 0.0 -7.87515 -35.3645 -7.66013 -21.7073 0.271445 3.30021 30.0838 27.2927 -4.17706 15.1526 -0.0 -0.0 -0.0 0.0 -0.0 5.42392 36.2799 -14.2888 3.40483 0.155111 0.499327 6.47427 -23.7742 0.966822 -8.52481 0.0 0.0 0.0 0.0 0.0 
885.954 766.145 -1636.06 16.4806 47.9503 -3.75369 -4.50034 -0.415761 -1.54218 -4.49908 -0.316798 -1.5655 -4.48786 0.144216 -1.5907 -4.49137 -0.108783 -1.59352 0.250452 2.33828 2.74271 0.270039 1.90484 3.19893 -0.0 0.0 -0.0 8.19327 6.86732 15.7227 3.68123 -5.17049 52.1314 2.62026 -52.3798 1.28892 -20.0993 -1.12364 2.29819 -1.56447 -8.95613 -14.5184 -0.0 0.0 -0.0 11.155 12.4423 -22.3529 -26.2698 32.7557 -48.4743 0.817588 22.0483 -0.159283 -23.373 1.38026 -2.62982 -6.15103 -15.3178 34.0018 0.0 0.0 0.0 -8.28322 -34.6047 -8.18128 -21.6466 0.272438 3.29095 31.539 27.4464 -4.35051 16.1541 -0.0 -0.0 -0.0 0.0 -0.0 5.04082 36.5555 -14.9362 3.11245 0.140627 0.456813 8.85884 -22.539 1.30609 -7.37316 0.0 0.0 0.0 0.0 0.0 
881.474 768.273 -1638.54 16.1092 48.0169 -3.27806 -4.26649 -0.367751 -1.408 -4.26543 -0.277421 -1.42854 -4.25647 0.136925 -1.44877 -4.25938 -0.0935735 -1.45221 -1.14683 1.2556 1.74281 -1.1389 0.853149 2.00133 -0.0 0.0 -0.0 8.28904 5.96252 15.9516 2.1216 -4.8981 52.2636 2.49311 -50.9945 1.18915 -20.231 -1.13359 2.31181 -1.57219 -9.13534 -14.6507 -0.0 0.0 -0.0 11.0282 12.5306 -22.067 -25.9883 34.3792 -48.8193 0.840748 22.6107 -0.168082 -23.3791 1.38075 -2.63043 -6.02704 -14.6528 33.5931 0.0 0.0 0.0 -7.73728 -32.9961 -8.21933 -21.6804 0.271887 3.2961 32.7281 27.695 -4.49355 15.364 -0.0 -0.0 -0.0 0.0 -0.0 6.13218 38.8816 -15.7516 0.750836 0.0316457 0.110873 7.35304 -21.2347 1.08288 -6.72228 0.0 0.0 0.0 0.0 0.0 
876.92 767.901 -1641.55 15.3509 47.8391 -2.44287 -4.29495 -0.255533 -1.3531 -4.29394 -0.168923 -1.36661 -4.28815 0.22432 -1.35862 -4.29072 0.00695788 -1.37699 -3.44794 -1.14579 1.03589 -3.44052 -2.88862 0.899374 -0.0 0.0 -0.0 8.56922 6.41352 16.4603 1.62703 -3.97643 52.8458 2.5738 -51.8835 1.25225 -19.6596 -1.09063 2.25255 -1.67873 -8.0097 -14.8994 -0.0 0.0 -0.0 11.1665 12.1333 -22.3847 -25.8465 35.1155 -48.1008 0.931053 24.7596 -0.204365 -23.6023 1.39894 -2.6525 -6.35787 -15.984 35.039 0.0 0.0 0.0 -5.11248 -27.7104 -7.94767 -21.4043 0.276306 3.25397 33.1618 28.0183 -4.55267 17.246 -0.0 -0.0 -0.0 0.0 -0.0 5.59792 36.9432 -15.7807 1.32026 0.0566145 0.194683 4.54214 -20.6167 0.672555 -4.61612 0.0 0.0 0.0 0.0 0.0 
869.6 766.181 -1646.75 15.2485 48.4271 -2.6085 -4.26451 -0.355707 -1.26808 -4.26366 -0.274302 -1.28814 -4.25581 0.100282 -1.31319 -4.2582 -0.108353 -1.31255 -2.18915 -1.05309 -0.771356 -2.18719 -1.29408 -0.950673 -0.0 0.0 -0.0 8.33219 4.82458 16.0898 0.452296 -4.23546 52.9919 2.46523 -50.6792 1.16753 -20.7965 -1.17669 2.37002 -1.55171 -8.77614 -14.3507 -0.0 0.0 -0.0 10.8594 12.8194 -21.6827 -26.7589 35.97 -47.8283 0.950035 25.2022 -0.212382 -24.443 1.46821 -2.735 -6.15478 -15.1679 34.1546 0.0 0.0 0.0 -5.76214 -30.3695 -7.55687 -21.2435 0.278787 3.22941 34.6651 27.8308 -4.71325 16.5862 -0.0 -0.0 -0.0 0.0 -0.0 4.7902 35.8085 -15.3913 1.14396 0.0487942 0.16876 9.615 -21.7016 1.40905 -6.22272 0.0 0.0 0.0 0.0 0.0 
863.702 766.323 -1645.17 14.7027 49.287 -2.9245 -4.06744 -0.318729 -1.01857 -4.0669 -0.253272 -1.03678 -4.06123 0.045914 -1.06628 -4.06279 -0.123051 -1.06015 -2.52615 -1.82948 -2.65817 -2.50748 -1.22457 -3.03244 -0.0 0.0 -0.0 8.67231 4.52216 16.7632 -0.463094 -3.85338 53.4382 2.29937 -48.7122 1.04103 -21.0516 -1.19632 2.39615 -1.41417 -10.2238 -14.024 -0.0 0.0 -0.0 10.6253 12.2021 -21.1749 -27.2514 36.5915 -46.7839 1.09248 28.4207 -0.276657 -24.9333 1.50916 -2.78265 -6.2815 -16.6073 33.9201 0.0 0.0 0.0 -5.49828 -32.0788 -6.39732 -20.8675 0.284318 3.17198 35.4197 27.985 -4.80049 16.9075 -0.0 -0.0 -0.0 0.0 -0.0 4.34416 36.2007 -13.9108 -0.193888 -0.00793532 -0.0286959 10.1883 -21.5871 1.48962 -4.60848 0.0 0.0 0.0 0.0 0.0 
863.391 769.484 -1650.85 15.9765 49.0518 -3.55289 -4.30731 -0.251522 -0.914152 -4.30687 -0.192845 -0.928302 -4.30286 0.0776837 -0.944933 -4.3041 -0.0725189 -0.945343 -3.17132 -2.97054 -1.86882 -3.15872 -3.95087 -2.37752 -0.0 0.0 -0.0 8.81297 4.24068 17.0519 -1.29315 -3.62061 53.0774 2.24857 -48.077 1.00304 -21.6115 -1.23981 2.45317 -1.30533 -10.4208 -13.3538 -0.0 0.0 -0.0 11.1409 11.5199 -22.3372 -27.0969 37.0327 -45.1064 1.19294 30.5796 -0.326133 -25.3027 1.54029 -2.81832 -6.2135 -15.9387 33.9645 0.0 0.0 0.0 -7.0114 -29.8165 -7.53308 -20.2301 0.292832 3.07456 35.2131 26.3393 -4.7245 16.7808 -0.0 -0.0 -0.0 0.0 -0.0 4.35434 36.3007 -15.222 -1.35867 -0.0535545 -0.201624 10.2264 -22.5341 1.50126 -4.90722 0.0 0.0 0.0 0.0 0.0 
859.485 770.873 -1658.57 14.8626 49.5719 -3.04006 -4.31005 -0.186588 -0.930642 -4.30958 -0.126993 -0.940628 -4.30665 0.144403 -0.938113 -4.30788 -0.00555957 -0.949145 -2.73287 -4.65145 -1.63356 -2.70825 -7.16075 -2.36048 -0.0 0.0 -0.0 8.9244 4.38287 17.2619 -2.39615 -2.93462 53.1269 2.27104 -48.36 1.0198 -21.2984 -1.21542 2.42133 -1.20892 -10.9945 -12.9334 -0.0 0.0 -0.0 11.0252 10.5027 -22.09 -25.9723 36.0561 -46.1159 1.23609 31.4789 -0.348381 -24.7378 1.49279 -2.76369 -6.43373 -17.5327 34.2828 0.0 0.0 0.0 -5.3652 -25.4074 -7.90633 -19.7448 0.298587 3.00032 34.7595 27.6089 -4.71619 16.766 -0.0 -0.0 -0.0 0.0 -0.0 5.04948 36.3388 -15.0195 -2.03885 -0.0785625 -0.303014 10.5524 -22.6304 1.54818 -3.95616 0.0 0.0 0.0 0.0 0.0 
859.56 771.098 -1661.79 15.8958 49.343 -3.41328 -4.32181 -0.216341 -1.0757 -4.32118 -0.147458 -1.08728 -4.31724 0.166483 -1.08453 -4.31889 -0.00687747 -1.09722 -2.57258 -4.7388 -2.24077 -2.54464 -6.83026 -2.99952 -0.0 0.0 -0.0 9.09719 4.89409 17.5693 -4.12097 -3.36103 53.4196 2.15516 -46.8668 0.934204 -22.3336 -1.29672 2.52611 -1.24127 -10.6554 -13.0113 -0.0 0.0 -0.0 11.5913 10.7831 -23.3541 -24.9201 33.3339 -45.0355 1.29751 32.7293 -0.381024 -25.5435 1.5607 -2.84146 -6.19893 -15.1296 34.5275 0.0 0.0 0.0 -6.08384 -22.6641 -9.06297 -19.1031 0.305232 2.90208 34.7385 27.5431 -4.71174 15.8854 -0.0 -0.0 -0.0 0.0 -0.0 5.15552 36.1686 -16.052 -2.39556 -0.0911956 -0.356301 8.67167 -25.7303 1.30002 -1.60225 0.0 0.0 0.0 0.0 0.0 
857.507 773.332 -1664.31 15.2669 50.3865 -3.14856 -4.49014 -0.170708 -0.944335 -4.48965 -0.110274 -0.953283 -4.48694 0.166997 -0.944999 -4.48818 0.0156639 -0.959512 -1.55095 -6.2513 -2.0151 -1.49798 -9.65144 -2.9114 -0.0 0.0 -0.0 9.29807 5.03615 17.9521 -4.22619 -2.14222 53.2889 2.11404 -46.316 0.904328 -22.5039 -1.31028 2.5432 -0.962668 -11.2613 -11.3499 -0.0 0.0 -0.0 11.8511 11.1167 -23.9377 -24.6681 33.6636 -44.5977 1.22211 31.1894 -0.341111 -26.5711 1.64892 -2.93926 -6.06966 -15.2103 33.4669 0.0 0.0 0.0 -8.24514 -30.3955 -9.38236 -17.2361 0.318302 2.61593 34.541 27.8682 -4.7009 17.27 -0.0 -0.0 -0.0 0.0 -0.0 5.12271 36.3864 -15.4505 -2.43724 -0.0926497 -0.362532 10.2771 -22.5905 1.50884 -3.94612 0.0 0.0 0.0 0.0 0.0 
